<svg width="393" height="529" viewBox="0 0 393 529" fill="none" xmlns="http://www.w3.org/2000/svg">
<path d="M0 190.093L6.55 193.88C13.1 197.667 26.2 205.24 39.3 211.393C52.4 217.547 65.5 222.28 78.6 216.316C91.7 210.257 104.8 193.596 117.9 159.043C131 124.489 144.1 72.044 157.2 51.2173C170.3 30.3907 183.4 41.1827 196.5 64.66C209.6 88.1373 222.7 124.489 235.8 112.751C248.9 101.107 262 41.4667 275.1 15.7173C288.2 -9.93735 301.3 -1.79601 314.4 36.0707C327.5 73.9373 340.6 141.529 353.7 148.44C366.8 155.351 379.9 101.769 386.45 74.884L393 48.0933V529.947H386.45C379.9 529.947 366.8 529.947 353.7 529.947C340.6 529.947 327.5 529.947 314.4 529.947C301.3 529.947 288.2 529.947 275.1 529.947C262 529.947 248.9 529.947 235.8 529.947C222.7 529.947 209.6 529.947 196.5 529.947C183.4 529.947 170.3 529.947 157.2 529.947C144.1 529.947 131 529.947 117.9 529.947C104.8 529.947 91.7 529.947 78.6 529.947C65.5 529.947 52.4 529.947 39.3 529.947C26.2 529.947 13.1 529.947 6.55 529.947H0V190.093Z" fill="#6949FE"/>
</svg>
